<svg width="74" height="87" viewBox="0 0 74 87" fill="none" xmlns="http://www.w3.org/2000/svg">
<path d="M42 5C42 2.23858 39.7614 0 37 0C34.2386 0 32 2.23858 32 5H42ZM33.4645 85.5355C35.4171 87.4882 38.5829 87.4882 40.5355 85.5355L72.3553 53.7157C74.308 51.7631 74.308 48.5973 72.3553 46.6447C70.4027 44.692 67.2369 44.692 65.2843 46.6447L37 74.9289L8.71573 46.6447C6.76311 44.692 3.59728 44.692 1.64466 46.6447C-0.307961 48.5973 -0.307961 51.7631 1.64466 53.7157L33.4645 85.5355ZM32 5L32 82H42V5H32Z" fill="#173D75"/>
</svg>
