<svg width="200" height="100" viewBox="0 0 200 100" fill="none" xmlns="http://www.w3.org/2000/svg">
<path d="M144.877 3.82782C110.767 -7.03002 73.0368 5.66051 46.4417 36.1938C44.4172 31.1799 38.3436 17.9707 24.7853 9.11842C14.6319 2.47923 4.96933 1.33812 0 1.16523C3.89571 8.49599 12.454 26.7538 11.9939 51.789C11.5951 74.6112 3.92638 91.2092 0 98.5745C4.6319 98.9203 11.7791 98.6783 19.6012 95.2204C37.6074 87.198 44.7546 68.3178 46.227 64.1683C48.1902 66.3468 91.8712 113.374 145.951 96.2577C177.27 86.3335 194.54 60.4684 200 51.5124C195.337 43.1788 178.068 14.3744 144.908 3.82782H144.877ZM145.337 55.9039C138.558 55.9039 133.067 49.7143 133.067 42.0723C133.067 34.4303 138.558 28.2407 145.337 28.2407C152.117 28.2407 157.607 34.4303 157.607 42.0723C157.607 49.7143 152.117 55.9039 145.337 55.9039Z" fill="white"/>
</svg>
