<svg width="260" height="307" viewBox="0 0 260 307" fill="none" xmlns="http://www.w3.org/2000/svg">
<path d="M136.914 194.956C113.194 141.85 166.432 112.931 197.531 43C224.94 112.405 277.073 143.953 254.458 194.956C231.843 245.958 160.634 248.061 136.914 194.956Z" fill="#173D75"/>
<path d="M42.6675 282.469C27.9576 249.105 60.9733 230.936 80.2595 187C97.2577 230.605 129.588 250.426 115.563 282.469C101.539 314.513 57.3775 315.834 42.6675 282.469Z" fill="#173D75"/>
<path d="M4.63027 120.928C-13.941 78.6659 27.7412 55.652 52.0902 0C73.5503 55.2335 114.367 80.3397 96.6611 120.928C78.9549 161.516 23.2016 163.19 4.63027 120.928Z" fill="#173D75"/>
</svg>
