<svg width="281" height="238" viewBox="0 0 281 238" fill="none" xmlns="http://www.w3.org/2000/svg">
<path d="M0.00684796 164.385C1.1847 160.393 1.88319 156.168 3.63627 152.442C10.3815 138.075 21.7491 129.81 37.6432 128.673C45.5937 128.105 53.6127 128.577 61.8302 128.577C61.6454 129.344 61.4331 130.015 61.3304 130.707C60.4127 136.815 58.7966 142.917 58.7281 149.039C58.4405 175.411 58.5706 201.782 58.6459 228.154C58.6528 231.304 59.2623 234.454 59.6184 237.85C56.5231 237.85 53.3525 237.85 50.1819 237.85C42.1698 237.85 34.1439 237.638 26.1387 237.898C12.9153 238.323 2.06808 229.461 0.30131 216.875C0.280766 216.717 0.102719 216.58 0 216.437C0 199.091 0 181.738 0 164.392L0.00684796 164.385Z" fill="#173D75"/>
<path d="M139.835 237.843C121.435 237.843 103.034 237.843 84.634 237.843C77.7381 237.843 74.8688 234.954 74.8619 228.037C74.8619 201.481 74.8003 174.918 74.8825 148.361C74.9441 128.591 87.3594 112.896 106.472 108.362C109.362 107.677 112.416 107.403 115.395 107.39C131.789 107.301 148.19 107.239 164.584 107.376C184.08 107.534 199.762 120.161 204.11 139.164C204.836 142.328 205.048 145.67 205.055 148.929C205.131 175.397 205.103 201.864 205.09 228.332C205.09 234.865 202.111 237.837 195.578 237.843C176.992 237.857 158.414 237.843 139.829 237.843H139.835Z" fill="#173D75"/>
<path d="M140.082 0.000159716C166.7 0.0686393 188.572 21.8931 188.586 48.3947C188.6 75.2456 166.755 97.2549 140.013 97.3439C113.395 97.433 91.434 75.362 91.3724 48.4632C91.3039 21.8931 113.382 -0.0683199 140.089 0.000159716H140.082Z" fill="#173D75"/>
<path d="M220.86 237.59C221.764 206.384 221.511 175.123 220.991 143.876C220.922 139.569 219.505 135.289 218.696 131.002C218.553 130.228 218.334 129.461 218.046 128.269C231.488 129.023 245.013 126.112 257.476 132.693C271.419 140.055 279.26 151.717 279.794 167.508C280.314 182.827 280.088 198.18 279.883 213.513C279.719 226.168 270.953 236.638 258.784 237.419C246.006 238.234 233.139 237.604 220.854 237.604L220.86 237.59Z" fill="#173D75"/>
<path d="M90.9273 81.8128C90.7424 101.925 74.3552 118.306 54.5577 118.176C34.5069 118.039 18.2225 101.645 18.3046 81.6759C18.3868 61.4812 34.8699 45.1831 54.9892 45.4091C74.9852 45.6282 91.1122 61.9674 90.9341 81.8197L90.9273 81.8128Z" fill="#173D75"/>
<path d="M261.661 81.7171C261.681 101.727 245.376 118.1 225.36 118.176C205.425 118.251 188.922 101.583 189.031 81.498C189.141 61.5225 205.322 45.416 225.291 45.4024C245.335 45.3887 261.633 61.6663 261.654 81.7171H261.661Z" fill="#173D75"/>
</svg>
