<svg width="353" height="229" viewBox="0 0 353 229" fill="none" xmlns="http://www.w3.org/2000/svg">
<path d="M79.5532 0C36.9293 0 2.84735 23.9492 2.37279 53.485C1.9198 80.9637 20.0824 90.7946 20.0824 90.7946C24.7633 95.2986 0 116.519 0 116.519C12.4464 125.441 53.5604 120.915 63.5692 105.822C63.5692 105.822 74.0742 106.97 79.5532 106.97C122.177 106.97 156.734 83.0209 156.734 53.485C156.734 23.9492 122.177 0 79.5532 0ZM42.1062 66.5206C35.7213 66.5206 30.5659 61.3237 30.5659 54.9358C30.5659 48.5479 35.7429 43.351 42.1062 43.351C48.4696 43.351 53.6466 48.5479 53.6466 54.9358C53.6466 61.3237 48.4696 66.5206 42.1062 66.5206ZM79.8983 66.5206C73.5134 66.5206 68.3579 61.3237 68.3579 54.9358C68.3579 48.5479 73.5349 43.351 79.8983 43.351C86.2617 43.351 91.4387 48.5479 91.4387 54.9358C91.4387 61.3237 86.2617 66.5206 79.8983 66.5206ZM117.69 66.5206C111.305 66.5206 106.15 61.3237 106.15 54.9358C106.15 48.5479 111.327 43.351 117.69 43.351C124.054 43.351 129.231 48.5479 129.231 54.9358C129.231 61.3237 124.054 66.5206 117.69 66.5206Z" fill="#173D75"/>
<path d="M248.561 71.3279C304.457 71.3279 349.151 102.517 349.774 140.983C350.368 176.769 326.55 189.572 326.55 189.572C320.411 195.438 352.885 223.074 352.885 223.074C336.563 234.693 282.647 228.799 269.522 209.143C269.522 209.143 255.746 210.638 248.561 210.638C192.665 210.638 147.348 179.448 147.348 140.983C147.348 102.517 192.665 71.3279 248.561 71.3279ZM297.668 157.959C306.041 157.959 312.802 151.191 312.802 142.872C312.802 134.553 306.013 127.785 297.668 127.785C289.323 127.785 282.534 134.553 282.534 142.872C282.534 151.191 289.323 157.959 297.668 157.959ZM248.108 157.959C256.482 157.959 263.242 151.191 263.242 142.872C263.242 134.553 256.453 127.785 248.108 127.785C239.764 127.785 232.975 134.553 232.975 142.872C232.975 151.191 239.764 157.959 248.108 157.959ZM198.549 157.959C206.922 157.959 213.683 151.191 213.683 142.872C213.683 134.553 206.894 127.785 198.549 127.785C190.204 127.785 183.415 134.553 183.415 142.872C183.415 151.191 190.204 157.959 198.549 157.959Z" fill="#173D75"/>
</svg>
