<svg width="73" height="60" viewBox="0 0 73 60" fill="none" xmlns="http://www.w3.org/2000/svg">
<path d="M5.04 14H9.42V17H1.12V2.9H5.04V14ZM14.8642 2.9V17H10.9442V2.9H14.8642ZM26.6566 2.9V6.02H21.0166V8.5H25.1766V11.48H21.0166V17H17.0966V2.9H26.6566ZM32.2275 6.04V8.34H36.7275V11.32H32.2275V13.86H37.3275V17H28.3075V2.9H37.3275V6.04H32.2275ZM10.12 29.76C10.9467 29.9467 11.6 30.36 12.08 31C12.5733 31.6267 12.82 32.3467 12.82 33.16C12.82 34.36 12.4067 35.3 11.58 35.98C10.7533 36.66 9.59333 37 8.1 37H1.12V22.9H7.88C9.32 22.9 10.4467 23.22 11.26 23.86C12.0867 24.5 12.5 25.4 12.5 26.56C12.5 27.3867 12.28 28.08 11.84 28.64C11.4133 29.1867 10.84 29.56 10.12 29.76ZM5.04 28.5H7.02C8.00667 28.5 8.5 28.0933 8.5 27.28C8.5 26.44 8.00667 26.02 7.02 26.02H5.04V28.5ZM7.32 33.84C8.30667 33.84 8.8 33.4267 8.8 32.6C8.8 32.1733 8.66667 31.8467 8.4 31.62C8.14667 31.3933 7.78 31.28 7.3 31.28H5.04V33.84H7.32ZM18.458 26.04V28.34H22.958V31.32H18.458V33.86H23.558V37H14.538V22.9H23.558V26.04H18.458ZM29.415 34H33.795V37H25.495V22.9H29.415V34ZM42.0792 37.14C40.7592 37.14 39.5459 36.8333 38.4392 36.22C37.3326 35.5933 36.4526 34.7333 35.7992 33.64C35.1592 32.5333 34.8392 31.2867 34.8392 29.9C34.8392 28.5133 35.1592 27.2733 35.7992 26.18C36.4526 25.0733 37.3326 24.2133 38.4392 23.6C39.5459 22.9867 40.7592 22.68 42.0792 22.68C43.4126 22.68 44.6259 22.9867 45.7192 23.6C46.8259 24.2133 47.6992 25.0733 48.3392 26.18C48.9792 27.2733 49.2992 28.5133 49.2992 29.9C49.2992 31.2867 48.9792 32.5333 48.3392 33.64C47.6992 34.7333 46.8259 35.5933 45.7192 36.22C44.6126 36.8333 43.3992 37.14 42.0792 37.14ZM42.0792 33.5C43.0792 33.5 43.8659 33.1733 44.4392 32.52C45.0259 31.8667 45.3192 30.9933 45.3192 29.9C45.3192 28.78 45.0259 27.9 44.4392 27.26C43.8659 26.6067 43.0792 26.28 42.0792 26.28C41.0659 26.28 40.2726 26.6067 39.6992 27.26C39.1259 27.9 38.8392 28.78 38.8392 29.9C38.8392 31.0067 39.1259 31.8867 39.6992 32.54C40.2726 33.18 41.0659 33.5 42.0792 33.5ZM70.9214 22.9L67.4614 37H62.6414L60.7014 28.36L58.7214 37H53.9014L50.4814 22.9H54.7214L56.3614 32.54L58.5814 22.9H62.8814L65.0414 32.46L66.6814 22.9H70.9214ZM20.98 42.9L17.52 57H12.7L10.76 48.36L8.78 57H3.96L0.54 42.9H4.78L6.42 52.54L8.64 42.9H12.94L15.1 52.46L16.74 42.9H20.98ZM31.5634 54.7H26.5634L25.8034 57H21.6834L26.8234 42.9H31.3434L36.4634 57H32.3234L31.5634 54.7ZM30.5834 51.7L29.0634 47.14L27.5634 51.7H30.5834ZM48.3611 42.9V46.02H44.6011V57H40.6811V46.02H36.9611V42.9H48.3611ZM53.7314 46.04V48.34H58.2314V51.32H53.7314V53.86H58.8314V57H49.8114V42.9H58.8314V46.04H53.7314ZM67.9084 57L65.1084 51.8H64.6884V57H60.7684V42.9H66.9484C68.0818 42.9 69.0418 43.1 69.8284 43.5C70.6151 43.8867 71.2084 44.4267 71.6084 45.12C72.0084 45.8 72.2084 46.5667 72.2084 47.42C72.2084 48.38 71.9418 49.2267 71.4084 49.96C70.8884 50.68 70.1218 51.1933 69.1084 51.5L72.2884 57H67.9084ZM64.6884 49.12H66.6284C67.1618 49.12 67.5618 48.9933 67.8284 48.74C68.0951 48.4867 68.2284 48.12 68.2284 47.64C68.2284 47.1867 68.0884 46.8333 67.8084 46.58C67.5418 46.3133 67.1484 46.18 66.6284 46.18H64.6884V49.12Z" fill="white"/>
<path d="M46.3144 5.44124C46.9072 5.07105 49.2693 7.33454 49.9512 8.28106C52.2243 6.86097 54.2698 5.91448 54.2698 5.91448C54.2698 5.91448 53.3607 1.77347 54.6109 2.00974C55.7497 2.22551 57.8583 3.77163 59.6114 5.20464C62.5663 6.03297 66.14 8.14063 66.5442 10.174C65.4078 14.0787 58.9295 15.9717 55.0655 16.8C53.1634 17.2079 54.2698 14.4338 54.2698 14.4338C54.2698 14.4338 52.2243 13.487 49.9512 12.0673C49.2693 13.0138 46.9072 15.2773 46.3144 14.9071C45.746 14.552 47.2235 10.174 47.2235 10.174C47.2235 10.174 45.746 5.79637 46.3144 5.44124ZM62.5004 10.3836C63.0185 10.3836 63.4382 9.94666 63.4382 9.40734C63.4382 8.8684 63.0185 8.43143 62.5004 8.43143C61.9828 8.43143 61.563 8.8684 61.563 9.40734C61.563 9.94666 61.9828 10.3836 62.5004 10.3836Z" fill="white"/>
</svg>
