<svg width="142" height="263" viewBox="0 0 142 263" fill="none" xmlns="http://www.w3.org/2000/svg">
<path d="M0.227636 72.7552C1.77284 54.196 26.1947 -0.337407 71.458 0.00157325C117.437 0.340553 141.03 56.9926 141.897 74.7891C142.085 78.5602 142.575 88.772 137.224 93.0092C135.301 94.5346 133.191 94.8312 128.857 94.9584C123.769 95.0855 116.684 94.9584 107.978 93.7719C109.937 124.238 108.995 148.56 107.714 165.381C106.508 180.975 104.623 195.254 104.699 217.712C104.736 233.898 105.792 247.203 106.696 256.016C106.998 259.703 105.113 262.626 103.267 262.965C101.156 263.347 98.1034 260.55 98.0657 256.016C96.4828 231.144 96.8974 211.101 97.5004 197.669C98.6687 172.119 101.231 158.305 100.742 132.077C100.44 115.509 99.0833 102.119 98.0657 93.7296H75.3022C70.1012 113.136 69.9128 128.645 70.6665 139.153C72.7771 168.517 84.4603 188.347 82.7644 213.983C82.1991 222.627 80.6162 224.067 79.2594 239.533C78.8448 244.364 78.5056 249.66 75.3022 255.084C73.5685 258.008 69.7997 262.965 67.953 262.118C64.2596 260.381 74.3223 238.093 75.0006 209.449C75.679 180.254 64.7118 173.009 62.639 138.941C61.4707 119.746 63.8827 103.857 65.9932 93.7719H45.6794C52.1617 110.594 52.9155 123.984 52.5386 132.712C51.3703 160.805 37.1619 176.356 34.9383 209.788C34.1845 221.144 33.8077 226.822 36.2574 233.347C39.0086 240.72 44.1719 246.694 44.1342 256.355C44.1342 261.059 42.8528 261.779 42.5513 261.948C40.6669 262.881 37.6141 259.194 36.5212 257.881C23.5565 242.372 25.6294 211.44 25.6294 211.44C28.2298 172.458 44.4357 163.771 44.2472 133.814C44.1342 116.187 38.4056 102.119 34.2976 93.9414C27.0992 95.0855 21.0314 94.9584 16.5465 94.5346C10.3657 93.9414 7.04917 93.5601 4.37332 90.933C-0.865316 85.9754 -0.0738679 76.4416 0.227636 72.7552Z" fill="white"/>
</svg>
