<svg width="1920" height="104" viewBox="0 0 1920 104" fill="none" xmlns="http://www.w3.org/2000/svg">
<path d="M0 16.2776C32 -5.42586 64 -5.42586 96 16.2776C128 37.981 160 37.981 192 16.2776C224 -5.42586 256 -5.42586 288 16.2776C320 37.981 352 37.981 384 16.2776C416 -5.42586 448 -5.42586 480 16.2776C512 37.981 544 37.981 576 16.2776C608 -5.42586 640 -5.42586 672 16.2776C704 37.981 736 37.981 768 16.2776C800 -5.42586 832 -5.42586 864 16.2776C896 37.981 928 37.981 960 16.2776C992 -5.42586 1024 -5.42586 1056 16.2776C1088 37.981 1120 37.981 1152 16.2776C1184 -5.42586 1216 -5.42586 1248 16.2776C1280 37.981 1312 37.981 1344 16.2776C1376 -5.42586 1408 -5.42586 1440 16.2776C1472 37.981 1504 37.981 1536 16.2776C1568 -5.42586 1600 -5.42586 1632 16.2776C1664 37.981 1696 37.981 1728 16.2776C1760 -5.42586 1792 -5.42586 1824 16.2776C1856 37.981 1888 37.981 1920 16.2776V103.662H0V16.2776Z" fill="#0A97D9"/>
</svg>
