<svg width="56" height="56" viewBox="0 0 56 56" fill="none" xmlns="http://www.w3.org/2000/svg">
<path d="M43.2291 0H12.7709C9.38383 0 6.13551 1.3455 3.7405 3.7405C1.3455 6.13551 0 9.38383 0 12.7709V43.2291C0 46.6162 1.3455 49.8645 3.7405 52.2595C6.13551 54.6545 9.38383 56 12.7709 56H43.2291C46.6162 56 49.8645 54.6545 52.2595 52.2595C54.6545 49.8645 56 46.6162 56 43.2291V12.7709C56 9.38383 54.6545 6.13551 52.2595 3.7405C49.8645 1.3455 46.6162 0 43.2291 0ZM18.9337 45.2078C18.9427 45.3641 18.9197 45.5206 18.866 45.6677C18.8123 45.8148 18.7291 45.9493 18.6216 46.0631C18.514 46.1769 18.3843 46.2674 18.2404 46.3293C18.0966 46.3911 17.9416 46.4228 17.785 46.4226H12.6732C12.365 46.4151 12.0719 46.2869 11.8571 46.0657C11.6424 45.8444 11.5229 45.5477 11.5245 45.2394V23.9795C11.5203 23.826 11.5469 23.6732 11.6027 23.5302C11.6586 23.3871 11.7425 23.2568 11.8496 23.1467C11.9567 23.0367 12.0847 22.9492 12.2262 22.8895C12.3677 22.8298 12.5197 22.7991 12.6732 22.7992H17.785C17.9386 22.7991 18.0906 22.8298 18.232 22.8895C18.3735 22.9492 18.5016 23.0367 18.6087 23.1467C18.7158 23.2568 18.7997 23.3871 18.8555 23.5302C18.9114 23.6732 18.938 23.826 18.9337 23.9795V45.2078ZM15.1344 18.3278C14.5809 18.3236 14.0337 18.2105 13.524 17.9949C13.0143 17.7793 12.552 17.4654 12.1636 17.0711C11.7752 16.6768 11.4683 16.2099 11.2603 15.697C11.0523 15.1841 10.9474 14.6353 10.9516 14.0818C10.9557 13.5284 11.0689 12.9812 11.2845 12.4715C11.5001 11.9618 11.814 11.4995 12.2083 11.1111C12.6026 10.7227 13.0695 10.4157 13.5824 10.2078C14.0953 9.99983 14.6441 9.89493 15.1975 9.89908C16.2961 9.9348 17.3371 10.3984 18.0986 11.191C18.8601 11.9835 19.2817 13.0423 19.2734 14.1414C19.2652 15.2404 18.8277 16.2928 18.0545 17.0738C17.2812 17.8549 16.2333 18.3028 15.1344 18.3221M46.1986 45.1733C46.1972 45.4635 46.0833 45.7418 45.8808 45.9497C45.6783 46.1575 45.4031 46.2787 45.113 46.2876H39.7169C39.4264 46.2786 39.1507 46.1571 38.9482 45.9486C38.7456 45.7402 38.632 45.4611 38.6314 45.1705V35.3374C38.6314 33.8699 39.0794 28.9534 34.7372 28.9534C31.3514 28.9534 30.6823 32.3996 30.553 33.9331V45.3945C30.5532 45.6856 30.4399 45.9654 30.2373 46.1745C30.0346 46.3836 29.7585 46.5055 29.4675 46.5145H24.2322C23.9357 46.5137 23.6515 46.3954 23.4421 46.1854C23.2327 45.9754 23.1151 45.691 23.1151 45.3945V23.8761C23.124 23.5851 23.246 23.309 23.4551 23.1063C23.6641 22.9037 23.9439 22.7904 24.2351 22.7906H29.4675C29.7587 22.7904 30.0384 22.9037 30.2475 23.1063C30.4566 23.309 30.5785 23.5851 30.5875 23.8761V25.7284C31.3515 24.6102 32.4063 23.7218 33.6381 23.159C34.8699 22.5963 36.232 22.3805 37.5774 22.535C46.2933 22.535 46.2617 30.6765 46.2617 35.3058L46.1986 45.1733Z" fill="white"/>
</svg>
