<svg width="1920" height="39" viewBox="0 0 1920 39" fill="none" xmlns="http://www.w3.org/2000/svg">
<path d="M-2 20.5C30 -1.20344 64 -2.42586 96 19.2776C128 40.981 160 40.981 192 19.2776C224 -2.42586 256 -2.42586 288 19.2776C320 40.981 352 40.981 384 19.2776C416 -2.42586 448 -2.42586 480 19.2776C512 40.981 544 40.981 576 19.2776C608 -2.42586 640 -2.42586 672 19.2776C704 40.981 736 40.981 768 19.2776C800 -2.42586 832 -2.42586 864 19.2776C896 40.981 928 40.981 960 19.2776C992 -2.42586 1024 -2.42586 1056 19.2776C1088 40.981 1120 40.981 1152 19.2776C1184 -2.42586 1216 -2.42586 1248 19.2776C1280 40.981 1312 40.981 1344 19.2776C1376 -2.42586 1408 -2.42586 1440 19.2776C1472 40.981 1504 40.981 1536 19.2776C1568 -2.42586 1600 -2.42586 1632 19.2776C1664 40.981 1696 40.981 1728 19.2776C1760 -2.42586 1792 -2.42586 1824 19.2776C1856 40.981 1890.5 36 1922 17" stroke="white" stroke-width="5"/>
</svg>
