<svg width="100" height="101" viewBox="0 0 100 101" fill="none" xmlns="http://www.w3.org/2000/svg">
<rect y="0.5" width="100" height="100" rx="50" fill="white"/>
<path d="M38.1611 60.924C39.2491 60.06 39.7451 59.66 39.6491 59.724C42.7851 57.132 45.2491 55.004 47.0411 53.34C48.8651 51.676 50.4011 49.932 51.6491 48.108C52.8971 46.284 53.5211 44.508 53.5211 42.78C53.5211 41.468 53.2171 40.444 52.6091 39.708C52.0011 38.972 51.0891 38.604 49.8731 38.604C48.6571 38.604 47.6971 39.068 46.9931 39.996C46.3211 40.892 45.9851 42.172 45.9851 43.836H38.0651C38.1291 41.116 38.7051 38.844 39.7931 37.02C40.9131 35.196 42.3691 33.852 44.1611 32.988C45.9851 32.124 48.0011 31.692 50.2091 31.692C54.0171 31.692 56.8811 32.668 58.8011 34.62C60.7531 36.572 61.7291 39.116 61.7291 42.252C61.7291 45.676 60.5611 48.86 58.2251 51.804C55.8891 54.716 52.9131 57.564 49.2971 60.348H62.2571V67.02H38.1611V60.924Z" fill="#173D75"/>
</svg>
