<svg width="100" height="101" viewBox="0 0 100 101" fill="none" xmlns="http://www.w3.org/2000/svg">
<rect y="0.5" width="100" height="100" rx="50" fill="white"/>
<path d="M54.2068 41.916C53.9508 40.732 53.5028 39.852 52.8628 39.276C52.2228 38.668 51.3108 38.364 50.1268 38.364C48.3028 38.364 46.9908 39.164 46.1908 40.764C45.3908 42.332 44.9748 44.828 44.9428 48.252C45.6468 47.132 46.6548 46.252 47.9668 45.612C49.3108 44.972 50.7828 44.652 52.3828 44.652C55.5188 44.652 58.0308 45.644 59.9188 47.628C61.8388 49.612 62.7988 52.38 62.7988 55.932C62.7988 58.268 62.3188 60.316 61.3588 62.076C60.4308 63.836 59.0548 65.212 57.2308 66.204C55.4388 67.196 53.3108 67.692 50.8468 67.692C45.9188 67.692 42.4948 66.156 40.5748 63.084C38.6548 59.98 37.6948 55.532 37.6948 49.74C37.6948 43.66 38.7028 39.148 40.7188 36.204C42.7668 33.228 46.0308 31.74 50.5108 31.74C52.9108 31.74 54.9268 32.22 56.5588 33.18C58.2228 34.108 59.4708 35.34 60.3028 36.876C61.1668 38.412 61.6788 40.092 61.8387 41.916H54.2068ZM50.4148 51.132C49.0388 51.132 47.8868 51.548 46.9588 52.38C46.0628 53.18 45.6148 54.332 45.6148 55.836C45.6148 57.372 46.0308 58.572 46.8628 59.436C47.7268 60.3 48.9428 60.732 50.5108 60.732C51.9188 60.732 53.0228 60.316 53.8228 59.484C54.6548 58.62 55.0708 57.452 55.0708 55.98C55.0708 54.476 54.6708 53.292 53.8708 52.428C53.0708 51.564 51.9188 51.132 50.4148 51.132Z" fill="#173D75"/>
</svg>
