<svg width="100" height="101" viewBox="0 0 100 101" fill="none" xmlns="http://www.w3.org/2000/svg">
<rect y="0.5" width="100" height="100" rx="50" fill="white"/>
<path d="M37.9168 42.348C38.0448 38.924 39.1648 36.284 41.2768 34.428C43.3888 32.572 46.2528 31.644 49.8688 31.644C52.2688 31.644 54.3168 32.06 56.0128 32.892C57.7408 33.724 59.0368 34.86 59.9008 36.3C60.7968 37.74 61.2448 39.356 61.2448 41.148C61.2448 43.26 60.7168 44.988 59.6608 46.332C58.6048 47.644 57.3728 48.54 55.9648 49.02V49.212C57.7888 49.82 59.2288 50.828 60.2848 52.236C61.3408 53.644 61.8688 55.452 61.8688 57.66C61.8688 59.644 61.4048 61.404 60.4768 62.94C59.5808 64.444 58.2528 65.628 56.4928 66.492C54.7648 67.356 52.7008 67.788 50.3008 67.788C46.4608 67.788 43.3888 66.844 41.0848 64.956C38.8128 63.068 37.6128 60.22 37.4848 56.412H45.4528C45.4848 57.82 45.8848 58.94 46.6528 59.772C47.4208 60.572 48.5408 60.972 50.0128 60.972C51.2608 60.972 52.2208 60.62 52.8928 59.916C53.5968 59.18 53.9488 58.22 53.9488 57.036C53.9488 55.5 53.4528 54.396 52.4608 53.724C51.5008 53.02 49.9488 52.668 47.8047 52.668H46.2688V45.996H47.8047C49.4368 45.996 50.7488 45.724 51.7408 45.18C52.7648 44.604 53.2768 43.596 53.2768 42.156C53.2768 41.004 52.9568 40.108 52.3168 39.468C51.6768 38.828 50.7968 38.508 49.6768 38.508C48.4608 38.508 47.5488 38.876 46.9408 39.612C46.3648 40.348 46.0288 41.26 45.9328 42.348H37.9168Z" fill="#173D75"/>
</svg>
