<svg width="100" height="100" viewBox="0 0 100 100" fill="none" xmlns="http://www.w3.org/2000/svg">
<rect width="100" height="100" rx="50" fill="white"/>
<path d="M61.2226 39.112H46.2466V45.736C46.8866 45.032 47.7826 44.456 48.9346 44.008C50.0866 43.56 51.3346 43.336 52.6786 43.336C55.0786 43.336 57.0626 43.88 58.6306 44.968C60.2306 46.056 61.3986 47.464 62.1346 49.192C62.8706 50.92 63.2386 52.792 63.2386 54.808C63.2386 58.552 62.1826 61.528 60.0706 63.736C57.9586 65.912 54.9826 67 51.1426 67C48.5826 67 46.3586 66.568 44.4706 65.704C42.5826 64.808 41.1266 63.576 40.1026 62.008C39.0786 60.44 38.5186 58.632 38.4226 56.584H46.4386C46.6306 57.576 47.0946 58.408 47.8306 59.08C48.5666 59.72 49.5746 60.04 50.8546 60.04C52.3586 60.04 53.4786 59.56 54.2146 58.6C54.9506 57.64 55.3186 56.36 55.3186 54.76C55.3186 53.192 54.9346 51.992 54.1666 51.16C53.3986 50.328 52.2786 49.912 50.8066 49.912C49.7186 49.912 48.8226 50.184 48.1186 50.728C47.4146 51.24 46.9506 51.928 46.7266 52.792H38.8066V31.912H61.2226V39.112Z" fill="#173D75"/>
</svg>
